<?xml version="1.0" standalone="no"?>
<!DOCTYPE svg PUBLIC "-//W3C//DTD SVG 20010904//EN"
 "http://www.w3.org/TR/2001/REC-SVG-20010904/DTD/svg10.dtd">
<svg version="1.0" xmlns="http://www.w3.org/2000/svg"
 width="373.000000pt" height="373.000000pt" viewBox="0 0 373.000000 373.000000"
 preserveAspectRatio="xMidYMid meet">
<metadata>
Created by potrace 1.14, written by Peter Selinger 2001-2017
</metadata>
<g transform="translate(0.000000,373.000000) scale(0.100000,-0.100000)"
fill="#000000" stroke="none">
<path d="M1886 3352 c-3 -2 -24 -6 -48 -8 -57 -5 -83 -10 -106 -23 -11 -6 -22
-8 -24 -5 -3 2 -26 -4 -51 -15 -25 -11 -48 -17 -51 -14 -3 4 -6 1 -6 -6 0 -7
-4 -10 -9 -6 -5 3 -12 1 -16 -5 -4 -6 -11 -8 -16 -5 -5 4 -9 1 -9 -5 0 -6 -4
-9 -9 -6 -5 3 -19 -2 -32 -12 -13 -10 -31 -22 -39 -26 -40 -19 -63 -37 -103
-78 -57 -62 -87 -99 -99 -125 -6 -13 -15 -23 -20 -23 -5 0 -6 -4 -3 -10 3 -5
2 -10 -3 -10 -5 0 -25 -13 -43 -30 -19 -16 -39 -30 -45 -30 -5 0 -21 -10 -34
-22 -14 -13 -28 -23 -33 -23 -13 0 -59 -86 -63 -117 -2 -16 1 -28 7 -28 6 0 7
-6 3 -12 -5 -8 0 -7 11 2 15 12 17 12 10 1 -6 -11 -3 -13 14 -8 27 7 46 -28
31 -58 -1 -3 -4 -9 -5 -15 -1 -5 -4 -12 -5 -15 -1 -3 -3 -8 -4 -12 -1 -5 -5
-17 -9 -28 -15 -46 -20 -87 -23 -207 -2 -71 0 -128 5 -128 4 0 7 -13 5 -30 -2
-16 0 -31 4 -34 4 -2 7 -45 7 -95 0 -50 2 -91 5 -91 3 0 6 -19 7 -42 1 -22 8
-45 15 -49 11 -7 11 -9 0 -9 -7 0 -11 -4 -8 -9 6 -9 -9 -18 -28 -19 -9 0 -29
-28 -32 -44 -1 -5 -2 -9 -4 -10 -14 -18 -20 -351 -7 -418 11 -63 13 -67 29
-92 21 -32 72 -32 113 0 15 12 24 22 19 22 -13 0 14 24 30 26 9 1 12 -4 9 -12
-3 -8 -1 -14 4 -14 5 0 9 -10 8 -22 -2 -28 16 -90 45 -154 13 -27 22 -50 21
-52 -1 -1 5 -9 13 -17 8 -8 25 -31 37 -52 23 -38 43 -63 67 -88 6 -8 12 -18
12 -24 0 -6 5 -11 10 -11 19 0 32 -54 33 -136 1 -54 -2 -85 -10 -93 -7 -7 -13
-9 -13 -6 0 3 -16 -1 -35 -9 -19 -8 -35 -12 -35 -9 0 3 -7 0 -15 -7 -9 -7 -18
-10 -22 -7 -3 4 -11 3 -18 -3 -6 -5 -31 -11 -55 -14 -67 -6 -110 -17 -110 -28
0 -5 -5 -6 -10 -3 -9 5 -75 -11 -130 -32 -8 -4 -19 -5 -23 -4 -5 1 -31 -5 -58
-13 -27 -8 -51 -15 -54 -16 -3 0 -6 0 -7 -1 -2 0 -12 -2 -23 -4 -68 -10 -103
-16 -125 -22 -41 -10 -54 -13 -77 -15 -13 -1 -23 -5 -23 -9 0 -9 169 -137 240
-181 222 -140 485 -235 755 -273 91 -12 417 -13 485 -1 315 58 486 118 706
247 127 75 347 246 322 250 -19 4 -24 5 -45 17 -17 9 -22 9 -26 -1 -4 -9 -6
-9 -6 1 -1 6 -9 12 -19 12 -10 0 -22 3 -26 7 -7 7 -18 10 -66 18 -14 3 -45 9
-70 15 -49 11 -108 22 -127 23 -7 0 -13 4 -13 9 0 4 -7 8 -16 8 -27 0 -188 41
-198 50 -12 12 -10 119 2 151 6 15 8 30 5 33 -4 3 -2 6 4 6 6 0 16 14 22 30 5
17 15 30 21 30 6 0 9 4 6 8 -3 5 7 22 22 39 15 17 28 37 30 44 2 8 9 21 16 29
7 8 18 30 26 48 7 17 17 32 23 32 6 0 7 3 4 7 -4 3 -2 12 4 20 6 7 9 13 6 13
-4 0 3 21 13 46 11 25 18 50 14 55 -3 5 -1 9 3 9 5 0 10 8 11 18 4 38 9 53 20
64 9 9 12 9 12 -2 0 -7 3 -10 6 -7 4 4 14 -1 23 -11 9 -9 23 -19 31 -21 34 -8
69 -8 82 0 7 5 9 9 3 9 -5 0 -3 4 5 10 10 6 14 28 13 82 -4 164 -5 263 -3 271
4 21 2 108 -3 113 -3 3 -3 12 0 20 3 8 0 14 -6 14 -6 0 -8 6 -5 14 3 7 -2 21
-11 29 -12 12 -17 40 -19 104 -2 49 -7 102 -11 118 -9 42 -10 133 0 250 14
168 11 294 -9 345 -18 49 -19 51 -31 95 -4 17 -10 35 -14 40 -3 6 -7 19 -8 30
-2 11 -8 24 -13 29 -6 6 -10 17 -10 26 0 9 -8 25 -17 36 -10 10 -24 31 -32 46
-8 15 -28 43 -45 62 -45 50 -66 76 -66 81 0 21 -144 126 -179 131 -3 0 -19 6
-34 12 -15 7 -39 15 -53 18 -13 3 -27 10 -30 15 -3 5 -15 9 -28 9 -12 0 -27 5
-34 12 -6 6 -46 13 -89 15 -133 7 -313 10 -317 5z"/>
</g>
</svg>
